<svg
                width="32"
                height="35"
                viewBox="0 0 32 35"
                fill="none"
                xmlns="http://www.w3.org/2000/svg"
            >
                <path
                    d="M7 13H5.5C2.95 13 1 11.05 1 8.5V1H7"
                    stroke="#FFBB38"
                    stroke-width="2"
                    stroke-miterlimit="10"
                ></path>
                <path
                    d="M25 13H26.5C29.05 13 31 11.05 31 8.5V1H25"
                    stroke="#FFBB38"
                    stroke-width="2"
                    stroke-miterlimit="10"
                ></path>
                <path
                    d="M16 28V22"
                    stroke="#FFBB38"
                    stroke-width="2"
                    stroke-miterlimit="10"
                ></path>
                <path
                    d="M16 22C11.05 22 7 17.95 7 13V1H25V13C25 17.95 20.95 22 16 22Z"
                    stroke="#FFBB38"
                    stroke-width="2"
                    stroke-miterlimit="10"
                    stroke-linecap="square"
                ></path>
                <path
                    d="M25 34H7C7 30.7 9.7 28 13 28H19C22.3 28 25 30.7 25 34Z"
                    stroke="#FFBB38"
                    stroke-width="2"
                    stroke-miterlimit="10"
                    stroke-linecap="square"
                ></path>
            </svg>